# Blender 3.4.1
# www.blender.org
mtllib HandleCover.mtl
o Cylinder
v -0.000000 0.045636 -0.015167
v -0.000000 0.088197 -0.015167
v 0.015048 0.045636 -0.010725
v 0.015048 0.088197 -0.010725
v 0.021280 0.045636 0.000000
v 0.021280 0.088197 0.000000
v 0.015048 0.045636 0.010725
v 0.015048 0.088197 0.010725
v -0.000000 0.045636 0.015167
v -0.000000 0.088197 0.015167
v -0.015048 0.045636 0.010725
v -0.015048 0.088197 0.010725
v -0.021280 0.045636 0.000000
v -0.021280 0.088197 0.000000
v -0.015048 0.045636 -0.010725
v -0.015048 0.088197 -0.010725
v -0.000000 -0.054115 -0.012280
v 0.012183 -0.054115 -0.008683
v 0.017229 -0.054115 -0.000000
v 0.012183 -0.054115 0.008683
v -0.000000 -0.054115 0.012280
v -0.012183 -0.054115 0.008683
v -0.017229 -0.054115 -0.000000
v -0.012183 -0.054115 -0.008683
v -0.000000 -0.097757 -0.010631
v 0.010547 -0.097757 -0.007517
v 0.014915 -0.097757 0.000000
v 0.010547 -0.097757 0.007517
v -0.000000 -0.097757 0.010631
v -0.010547 -0.097757 0.007517
v -0.014915 -0.097757 0.000000
v -0.010547 -0.097757 -0.007517
vn 0.2831 -0.0000 -0.9591
vn 0.8646 -0.0000 -0.5025
vn 0.8646 -0.0000 0.5025
vn 0.2831 -0.0000 0.9591
vn -0.2831 -0.0000 0.9591
vn -0.8646 -0.0000 0.5025
vn -0.0000 1.0000 -0.0000
vn -0.8646 -0.0000 -0.5025
vn -0.2831 -0.0000 -0.9591
vn 0.8641 -0.0351 0.5022
vn -0.2830 -0.0362 -0.9584
vn -0.8641 -0.0351 0.5022
vn 0.2830 -0.0278 0.9587
vn -0.8641 -0.0351 -0.5022
vn 0.8641 -0.0351 -0.5022
vn -0.2830 -0.0278 0.9587
vn -0.2830 -0.0278 -0.9587
vn 0.2830 -0.0278 -0.9587
vn -0.0000 -1.0000 -0.0000
vn -0.8637 -0.0458 0.5019
vn 0.2830 -0.0362 0.9584
vn 0.8637 -0.0458 -0.5019
vn -0.8637 -0.0458 -0.5019
vn -0.2830 -0.0362 0.9584
vn 0.8637 -0.0458 0.5019
vn 0.2830 -0.0362 -0.9584
vt 0.342782 0.228465
vt 0.457042 0.086526
vt 0.342782 0.000000
vt 0.423576 0.228995
vt 0.423576 0.000530
vt 0.457042 0.170768
vt 0.000000 0.230276
vt 0.457042 0.230276
vt 0.457042 0.001811
vt 0.000000 0.001811
vt 0.502795 0.219169
vt 0.033466 0.228995
vt 0.033466 0.000530
vt 0.567500 0.203378
vt 0.114261 0.228465
vt 0.114261 0.000000
vt 0.613253 0.132643
vt 0.195055 0.228995
vt 0.195055 0.000530
vt 0.613253 0.048402
vt 0.228521 0.230276
vt 0.567500 0.000000
vt 0.228521 0.001811
vt 0.261987 0.228995
vt 0.502795 0.015792
vt 0.261987 0.000530
vt 0.342782 0.764270
vt 0.408195 0.764699
vt 0.435291 0.765736
vt 0.021752 0.765736
vt 0.048847 0.764699
vt 0.114261 0.764270
vt 0.179674 0.764699
vt 0.206770 0.765736
vt 0.250273 0.765736
vt 0.277368 0.764699
vt 0.457042 0.279814
vt 0.342782 0.998731
vt 0.489110 0.230238
vt 0.399410 0.999103
vt 0.534461 0.219169
vt 0.422866 1.000000
vt 0.034177 1.000000
vt 0.566528 0.253094
vt 0.057633 0.999103
vt 0.566528 0.312138
vt 0.114261 0.998731
vt 0.534461 0.361714
vt 0.170888 0.999103
vt 0.489110 0.372783
vt 0.194344 1.000000
vt 0.262698 1.000000
vt 0.457042 0.338859
vt 0.286154 0.999103
s 0
usemtl Material.001
f 1/1/1 2/3/1 4/5/1 3/4/1
f 3/4/2 4/5/2 6/9/2 5/8/2
f 5/7/3 6/10/3 8/13/3 7/12/3
f 7/12/4 8/13/4 10/16/4 9/15/4
f 9/15/5 10/16/5 12/19/5 11/18/5
f 11/18/6 12/19/6 14/23/6 13/21/6
f 4/6/7 2/2/7 16/25/7 14/22/7 12/20/7 10/17/7 8/14/7 6/11/7
f 13/21/8 14/23/8 16/26/8 15/24/8
f 15/24/9 16/26/9 2/3/9 1/1/9
f 5/7/10 7/12/10 20/31/10 19/30/10
f 24/36/11 17/27/11 25/38/11 32/54/11
f 11/18/12 13/21/12 23/34/12 22/33/12
f 7/12/13 9/15/13 21/32/13 20/31/13
f 13/21/14 15/24/14 24/36/14 23/35/14
f 3/4/15 5/8/15 19/29/15 18/28/15
f 9/15/16 11/18/16 22/33/16 21/32/16
f 15/24/17 1/1/17 17/27/17 24/36/17
f 1/1/18 3/4/18 18/28/18 17/27/18
f 25/37/19 26/39/19 27/41/19 28/44/19 29/46/19 30/48/19 31/50/19 32/53/19
f 22/33/20 23/34/20 31/51/20 30/49/20
f 20/31/21 21/32/21 29/47/21 28/45/21
f 18/28/22 19/29/22 27/42/22 26/40/22
f 23/35/23 24/36/23 32/54/23 31/52/23
f 21/32/24 22/33/24 30/49/24 29/47/24
f 19/30/25 20/31/25 28/45/25 27/43/25
f 17/27/26 18/28/26 26/40/26 25/38/26
