# Blender 3.4.1
# www.blender.org
mtllib Ejection port.mtl
o Cube.003
v -0.016456 0.059124 0.008552
v -0.016456 0.075754 0.008552
v -0.016456 0.059124 -0.009191
v -0.016456 0.075754 -0.009191
v 0.016456 0.059124 0.008552
v 0.016456 0.075754 0.008552
v 0.016456 0.059124 -0.009191
v 0.016456 0.075754 -0.009191
vn -1.0000 -0.0000 -0.0000
vn -0.0000 -0.0000 -1.0000
vn 1.0000 -0.0000 -0.0000
vn -0.0000 -0.0000 1.0000
vn -0.0000 -1.0000 -0.0000
vn -0.0000 1.0000 -0.0000
vt 0.774841 0.769550
vt 0.791746 0.000000
vt 0.000000 0.000000
vt 0.522195 0.769550
vt 0.539101 0.000000
vt 0.269550 0.500000
vt 0.774841 0.500000
vt 0.522195 1.000000
vt 0.269550 0.000000
vt 0.522195 0.500000
vt 0.269550 1.000000
vt 0.539101 0.500000
vt 0.269550 0.500000
vt 0.791746 0.500000
vt 0.000000 0.500000
vt 0.016905 0.500000
vt 0.539101 0.500000
vt 0.269550 0.000000
vt 0.522195 0.500000
vt 0.269550 0.769550
vt 0.269550 0.500000
vt 0.269550 0.500000
vt 0.016905 0.769550
vt 0.539101 0.000000
s 0
f 1/1/1 2/4/1 4/10/1 3/7/1
f 3/8/2 4/11/2 8/22/2 7/19/2
f 7/20/3 8/23/3 6/16/3 5/13/3
f 5/14/4 6/17/4 2/5/4 1/2/4
f 3/9/5 7/21/5 5/15/5 1/3/5
f 8/24/6 4/12/6 2/6/6 6/18/6
